{"buffers":[{"uri":"allShapesOptimisedV5.bin","byteLength":512220}],"asset":{"version":"2.0","generator":"gltfpack 0.15"},"extensionsUsed":["KHR_mesh_quantization"],"extensionsRequired":["KHR_mesh_quantization"],"bufferViews":[{"buffer":0,"byteOffset":0,"byteLength":172600,"byteStride":8,"target":34962},{"buffer":0,"byteOffset":172600,"byteLength":86300,"byteStride":4,"target":34962},{"buffer":0,"byteOffset":258900,"byteLength":253320,"target":34963}],"accessors":[{"bufferView":0,"byteOffset":0,"componentType":5123,"count":662,"type":"VEC3","min":[4373,6545,2],"max":[7647,9832,4002]},{"bufferView":1,"byteOffset":0,"componentType":5120,"count":662,"type":"VEC3","normalized":true},{"bufferView":2,"byteOffset":0,"componentType":5123,"count":3798,"type":"SCALAR"},{"bufferView":0,"byteOffset":5296,"componentType":5123,"count":3922,"type":"VEC3","min":[0,2177,0],"max":[12018,14186,4000]},{"bufferView":1,"byteOffset":2648,"componentType":5120,"count":3922,"type":"VEC3","normalized":true},{"bufferView":2,"byteOffset":7596,"componentType":5123,"count":22848,"type":"SCALAR"},{"bufferView":0,"byteOffset":36672,"componentType":5123,"count":562,"type":"VEC3","min":[4371,2183,0],"max":[7645,14200,3999]},{"bufferView":1,"byteOffset":18336,"componentType":5120,"count":562,"type":"VEC3","normalized":true},{"bufferView":2,"byteOffset":53292,"componentType":5123,"count":3180,"type":"SCALAR"},{"bufferView":0,"byteOffset":41168,"componentType":5123,"count":729,"type":"VEC3","min":[4362,0,0],"max":[7649,16383,4000]},{"bufferView":1,"byteOffset":20584,"componentType":5120,"count":729,"type":"VEC3","normalized":true},{"bufferView":2,"byteOffset":59652,"componentType":5123,"count":4200,"type":"SCALAR"},{"bufferView":0,"byteOffset":47000,"componentType":5123,"count":5321,"type":"VEC3","min":[11,2192,2],"max":[9962,14196,4002]},{"bufferView":1,"byteOffset":23500,"componentType":5120,"count":5321,"type":"VEC3","normalized":true},{"bufferView":2,"byteOffset":68052,"componentType":5123,"count":31530,"type":"SCALAR"},{"bufferView":0,"byteOffset":89568,"componentType":5123,"count":5753,"type":"VEC3","min":[21,2193,0],"max":[11994,14195,4000]},{"bufferView":1,"byteOffset":44784,"componentType":5120,"count":5753,"type":"VEC3","normalized":true},{"bufferView":2,"byteOffset":131112,"componentType":5123,"count":33834,"type":"SCALAR"},{"bufferView":0,"byteOffset":135592,"componentType":5123,"count":4626,"type":"VEC3","min":[40,2187,0],"max":[11999,14197,4000]},{"bufferView":1,"byteOffset":67796,"componentType":5120,"count":4626,"type":"VEC3","normalized":true},{"bufferView":2,"byteOffset":198780,"componentType":5123,"count":27270,"type":"SCALAR"}],"meshes":[{"primitives":[{"attributes":{"POSITION":0,"NORMAL":1},"mode":4,"indices":2}]},{"primitives":[{"attributes":{"POSITION":3,"NORMAL":4},"mode":4,"indices":5}]},{"primitives":[{"attributes":{"POSITION":6,"NORMAL":7},"mode":4,"indices":8}]},{"primitives":[{"attributes":{"POSITION":9,"NORMAL":10},"mode":4,"indices":11}]},{"primitives":[{"attributes":{"POSITION":12,"NORMAL":13},"mode":4,"indices":14}]},{"primitives":[{"attributes":{"POSITION":15,"NORMAL":16},"mode":4,"indices":17}]},{"primitives":[{"attributes":{"POSITION":18,"NORMAL":19},"mode":4,"indices":20}]}],"nodes":[{"mesh":0,"translation":[-4.51735306,-6.16321516,-1.5014981],"scale":[0.00075230276,0.00075230276,0.00075230276]},{"mesh":1,"translation":[-4.51735306,-6.16321516,-1.5014981],"scale":[0.00075230276,0.00075230276,0.00075230276]},{"mesh":2,"translation":[-4.51735306,-6.16321516,-1.5014981],"scale":[0.00075230276,0.00075230276,0.00075230276]},{"mesh":3,"translation":[-4.51735306,-6.16321516,-1.5014981],"scale":[0.00075230276,0.00075230276,0.00075230276]},{"mesh":4,"translation":[-4.51735306,-6.16321516,-1.5014981],"scale":[0.00075230276,0.00075230276,0.00075230276]},{"mesh":5,"translation":[-4.51735306,-6.16321516,-1.5014981],"scale":[0.00075230276,0.00075230276,0.00075230276]},{"mesh":6,"translation":[-4.51735306,-6.16321516,-1.5014981],"scale":[0.00075230276,0.00075230276,0.00075230276]},{"name":"Rect Sm","rotation":[0,0,0,-1],"children":[0]},{"name":"Arc","rotation":[0,0,0,-1],"children":[1]},{"name":"Rect Md","rotation":[0,0,0,-1],"children":[2]},{"name":"Rect Lg","rotation":[0,0,0,-1],"children":[3]},{"name":"C","rotation":[0,0,0,-1],"children":[4]},{"name":"Circle","rotation":[0,0,0,-1],"children":[5]},{"name":"Hook","rotation":[0,0,0,-1],"children":[6]}],"scenes":[{"name":"Scene","nodes":[7,8,9,10,11,12,13]}],"scene":0}