{"buffers":[{"uri":"allShapesOptimised.bin","byteLength":165840}],"asset":{"version":"2.0","generator":"gltfpack 0.15"},"extensionsUsed":["KHR_mesh_quantization"],"extensionsRequired":["KHR_mesh_quantization"],"bufferViews":[{"buffer":0,"byteOffset":0,"byteLength":55304,"byteStride":8,"target":34962},{"buffer":0,"byteOffset":55304,"byteLength":27652,"byteStride":4,"target":34962},{"buffer":0,"byteOffset":82956,"byteLength":82884,"target":34963}],"accessors":[{"bufferView":0,"byteOffset":0,"componentType":5123,"count":5232,"type":"VEC3","min":[0,0,0],"max":[15921,16383,5006]},{"bufferView":1,"byteOffset":0,"componentType":5120,"count":5232,"type":"VEC3","normalized":true},{"bufferView":2,"byteOffset":0,"componentType":5123,"count":31368,"type":"SCALAR"},{"bufferView":0,"byteOffset":41856,"componentType":5123,"count":1681,"type":"VEC3","min":[902,682,0],"max":[13351,15701,5006]},{"bufferView":1,"byteOffset":20928,"componentType":5120,"count":1681,"type":"VEC3","normalized":true},{"bufferView":2,"byteOffset":62736,"componentType":5123,"count":10074,"type":"SCALAR"}],"meshes":[{"primitives":[{"attributes":{"POSITION":0,"NORMAL":1},"mode":4,"indices":2},{"attributes":{"POSITION":3,"NORMAL":4},"mode":4,"indices":5}]}],"nodes":[{"mesh":0,"translation":[-5.04071045,-4.90874195,-1.5],"scale":[0.000599248277,0.000599248277,0.000599248277]}],"scenes":[{"name":"Scene","nodes":[0]}],"scene":0}