{"buffers":[{"uri":"allShapesOptimisedV3.bin","byteLength":622656}],"asset":{"version":"2.0","generator":"gltfpack 0.15"},"extensionsUsed":["KHR_mesh_quantization"],"extensionsRequired":["KHR_mesh_quantization"],"bufferViews":[{"buffer":0,"byteOffset":0,"byteLength":214048,"byteStride":8,"target":34962},{"buffer":0,"byteOffset":214048,"byteLength":107024,"byteStride":4,"target":34962},{"buffer":0,"byteOffset":321072,"byteLength":301584,"target":34963}],"accessors":[{"bufferView":0,"byteOffset":0,"componentType":5123,"count":11798,"type":"VEC3","min":[0,579,110],"max":[14918,15798,4936]},{"bufferView":1,"byteOffset":0,"componentType":5120,"count":11798,"type":"VEC3","normalized":true},{"bufferView":2,"byteOffset":0,"componentType":5123,"count":70776,"type":"SCALAR"},{"bufferView":0,"byteOffset":94384,"componentType":5123,"count":1077,"type":"VEC3","min":[6331,0,90],"max":[10490,16383,4916]},{"bufferView":1,"byteOffset":47192,"componentType":5120,"count":1077,"type":"VEC3","normalized":true},{"bufferView":2,"byteOffset":141552,"componentType":5123,"count":5172,"type":"SCALAR"},{"bufferView":0,"byteOffset":103000,"componentType":5123,"count":3805,"type":"VEC3","min":[901,697,0],"max":[15920,15686,5006]},{"bufferView":1,"byteOffset":51500,"componentType":5120,"count":3805,"type":"VEC3","normalized":true},{"bufferView":2,"byteOffset":151896,"componentType":5123,"count":14400,"type":"SCALAR"},{"bufferView":0,"byteOffset":133440,"componentType":5123,"count":10076,"type":"VEC3","min":[964,744,0],"max":[13346,15639,5006]},{"bufferView":1,"byteOffset":66720,"componentType":5120,"count":10076,"type":"VEC3","normalized":true},{"bufferView":2,"byteOffset":180696,"componentType":5123,"count":60444,"type":"SCALAR"}],"meshes":[{"primitives":[{"attributes":{"POSITION":0,"NORMAL":1},"mode":4,"indices":2}]},{"primitives":[{"attributes":{"POSITION":3,"NORMAL":4},"mode":4,"indices":5}]},{"primitives":[{"attributes":{"POSITION":6,"NORMAL":7},"mode":4,"indices":8}]},{"primitives":[{"attributes":{"POSITION":9,"NORMAL":10},"mode":4,"indices":11}]}],"nodes":[{"mesh":0,"translation":[-5.0401082,-4.90874195,-1.5],"scale":[0.000599248277,0.000599248277,0.000599248277]},{"mesh":1,"translation":[-5.0401082,-4.90874195,-1.5],"scale":[0.000599248277,0.000599248277,0.000599248277]},{"mesh":2,"translation":[-5.0401082,-4.90874195,-1.5],"scale":[0.000599248277,0.000599248277,0.000599248277]},{"mesh":3,"translation":[-5.0401082,-4.90874195,-1.5],"scale":[0.000599248277,0.000599248277,0.000599248277]},{"name":"Hook","children":[0]},{"name":"Rectangle","children":[1]},{"name":"Donut","children":[2]},{"name":"C","children":[3]},{"name":"Camera","translation":[7.35889149,4.95830917,6.92579079],"rotation":[0.483536035,0.336871594,-0.208703607,0.780482709]}],"scenes":[{"name":"Scene","nodes":[4,5,6,7,8]}],"scene":0}