{"buffers":[{"uri":"allShapesOptimised2.bin","byteLength":165840}],"asset":{"version":"2.0","generator":"gltfpack 0.15"},"extensionsUsed":["KHR_mesh_quantization"],"extensionsRequired":["KHR_mesh_quantization"],"bufferViews":[{"buffer":0,"byteOffset":0,"byteLength":55304,"byteStride":8,"target":34962},{"buffer":0,"byteOffset":55304,"byteLength":27652,"byteStride":4,"target":34962},{"buffer":0,"byteOffset":82956,"byteLength":82884,"target":34963}],"accessors":[{"bufferView":0,"byteOffset":0,"componentType":5123,"count":1968,"type":"VEC3","min":[0,579,109],"max":[14919,15816,4936]},{"bufferView":1,"byteOffset":0,"componentType":5120,"count":1968,"type":"VEC3","normalized":true},{"bufferView":2,"byteOffset":0,"componentType":5123,"count":11796,"type":"SCALAR"},{"bufferView":0,"byteOffset":15744,"componentType":5123,"count":864,"type":"VEC3","min":[6332,0,90],"max":[10491,16383,4916]},{"bufferView":1,"byteOffset":7872,"componentType":5120,"count":864,"type":"VEC3","normalized":true},{"bufferView":2,"byteOffset":23592,"componentType":5123,"count":5172,"type":"SCALAR"},{"bufferView":0,"byteOffset":22656,"componentType":5123,"count":2400,"type":"VEC3","min":[902,697,0],"max":[15921,15686,5006]},{"bufferView":1,"byteOffset":11328,"componentType":5120,"count":2400,"type":"VEC3","normalized":true},{"bufferView":2,"byteOffset":33936,"componentType":5123,"count":14400,"type":"SCALAR"},{"bufferView":0,"byteOffset":41856,"componentType":5123,"count":1681,"type":"VEC3","min":[902,682,0],"max":[13351,15701,5006]},{"bufferView":1,"byteOffset":20928,"componentType":5120,"count":1681,"type":"VEC3","normalized":true},{"bufferView":2,"byteOffset":62736,"componentType":5123,"count":10074,"type":"SCALAR"}],"meshes":[{"primitives":[{"attributes":{"POSITION":0,"NORMAL":1},"mode":4,"indices":2}]},{"primitives":[{"attributes":{"POSITION":3,"NORMAL":4},"mode":4,"indices":5}]},{"primitives":[{"attributes":{"POSITION":6,"NORMAL":7},"mode":4,"indices":8}]},{"primitives":[{"attributes":{"POSITION":9,"NORMAL":10},"mode":4,"indices":11}]}],"nodes":[{"mesh":0,"translation":[-5.04071045,-4.90874195,-1.5],"scale":[0.000599248277,0.000599248277,0.000599248277]},{"mesh":1,"translation":[-5.04071045,-4.90874195,-1.5],"scale":[0.000599248277,0.000599248277,0.000599248277]},{"mesh":2,"translation":[-5.04071045,-4.90874195,-1.5],"scale":[0.000599248277,0.000599248277,0.000599248277]},{"mesh":3,"translation":[-5.04071045,-4.90874195,-1.5],"scale":[0.000599248277,0.000599248277,0.000599248277]},{"name":"Hook","children":[0]},{"name":"Rectangle","children":[1]},{"name":"Donut","children":[2]},{"name":"C","children":[3]}],"scenes":[{"name":"Scene","nodes":[4,5,6,7]}],"scene":0}