{
    "asset" : {
        "generator" : "Khronos glTF Blender I/O v1.2.75",
        "version" : "2.0"
    },
    "scene" : 0,
    "scenes" : [
        {
            "name" : "Scene",
            "nodes" : [
                0,
                1,
                2,
                3
            ]
        }
    ],
    "nodes" : [
        {
            "mesh" : 0,
            "name" : "Hook"
        },
        {
            "mesh" : 1,
            "name" : "Rectangle"
        },
        {
            "mesh" : 2,
            "name" : "Donut"
        },
        {
            "mesh" : 3,
            "name" : "C"
        }
    ],
    "meshes" : [
        {
            "name" : "Hook",
            "primitives" : [
                {
                    "attributes" : {
                        "POSITION" : 0,
                        "NORMAL" : 1,
                        "TEXCOORD_0" : 2
                    },
                    "indices" : 3
                }
            ]
        },
        {
            "name" : "Rectangle",
            "primitives" : [
                {
                    "attributes" : {
                        "POSITION" : 4,
                        "NORMAL" : 5,
                        "TEXCOORD_0" : 6
                    },
                    "indices" : 7
                }
            ]
        },
        {
            "name" : "Donut",
            "primitives" : [
                {
                    "attributes" : {
                        "POSITION" : 8,
                        "NORMAL" : 9,
                        "TEXCOORD_0" : 10
                    },
                    "indices" : 11
                }
            ]
        },
        {
            "name" : "C",
            "primitives" : [
                {
                    "attributes" : {
                        "POSITION" : 12,
                        "NORMAL" : 13,
                        "TEXCOORD_0" : 14,
                        "COLOR_0" : 15
                    },
                    "indices" : 16
                }
            ]
        }
    ],
    "accessors" : [
        {
            "bufferView" : 0,
            "componentType" : 5126,
            "count" : 3050,
            "max" : [
                3.8993489742279053,
                4.569037437438965,
                1.4578050374984741
            ],
            "min" : [
                -5.04071044921875,
                -4.561607360839844,
                -1.4343825578689575
            ],
            "type" : "VEC3"
        },
        {
            "bufferView" : 1,
            "componentType" : 5126,
            "count" : 3050,
            "type" : "VEC3"
        },
        {
            "bufferView" : 2,
            "componentType" : 5126,
            "count" : 3050,
            "type" : "VEC2"
        },
        {
            "bufferView" : 3,
            "componentType" : 5123,
            "count" : 11796,
            "type" : "SCALAR"
        },
        {
            "bufferView" : 4,
            "componentType" : 5126,
            "count" : 1135,
            "max" : [
                1.24609375,
                4.908742904663086,
                1.4460936784744263
            ],
            "min" : [
                -1.24609375,
                -4.9087419509887695,
                -1.4460939168930054
            ],
            "type" : "VEC3"
        },
        {
            "bufferView" : 5,
            "componentType" : 5126,
            "count" : 1135,
            "type" : "VEC3"
        },
        {
            "bufferView" : 6,
            "componentType" : 5126,
            "count" : 1135,
            "type" : "VEC2"
        },
        {
            "bufferView" : 7,
            "componentType" : 5123,
            "count" : 5172,
            "type" : "SCALAR"
        },
        {
            "bufferView" : 8,
            "componentType" : 5126,
            "count" : 3805,
            "max" : [
                4.5,
                4.491120338439941,
                1.5
            ],
            "min" : [
                -4.5,
                -4.491120338439941,
                -1.5
            ],
            "type" : "VEC3"
        },
        {
            "bufferView" : 9,
            "componentType" : 5126,
            "count" : 3805,
            "type" : "VEC3"
        },
        {
            "bufferView" : 10,
            "componentType" : 5126,
            "count" : 3805,
            "type" : "VEC2"
        },
        {
            "bufferView" : 11,
            "componentType" : 5123,
            "count" : 14400,
            "type" : "SCALAR"
        },
        {
            "bufferView" : 12,
            "componentType" : 5126,
            "count" : 2346,
            "max" : [
                2.9598541259765625,
                4.5,
                1.5
            ],
            "min" : [
                -4.5,
                -4.5,
                -1.5
            ],
            "type" : "VEC3"
        },
        {
            "bufferView" : 13,
            "componentType" : 5126,
            "count" : 2346,
            "type" : "VEC3"
        },
        {
            "bufferView" : 14,
            "componentType" : 5126,
            "count" : 2346,
            "type" : "VEC2"
        },
        {
            "bufferView" : 15,
            "componentType" : 5126,
            "count" : 2346,
            "type" : "VEC4"
        },
        {
            "bufferView" : 16,
            "componentType" : 5123,
            "count" : 10074,
            "type" : "SCALAR"
        }
    ],
    "bufferViews" : [
        {
            "buffer" : 0,
            "byteLength" : 36600,
            "byteOffset" : 0
        },
        {
            "buffer" : 0,
            "byteLength" : 36600,
            "byteOffset" : 36600
        },
        {
            "buffer" : 0,
            "byteLength" : 24400,
            "byteOffset" : 73200
        },
        {
            "buffer" : 0,
            "byteLength" : 23592,
            "byteOffset" : 97600
        },
        {
            "buffer" : 0,
            "byteLength" : 13620,
            "byteOffset" : 121192
        },
        {
            "buffer" : 0,
            "byteLength" : 13620,
            "byteOffset" : 134812
        },
        {
            "buffer" : 0,
            "byteLength" : 9080,
            "byteOffset" : 148432
        },
        {
            "buffer" : 0,
            "byteLength" : 10344,
            "byteOffset" : 157512
        },
        {
            "buffer" : 0,
            "byteLength" : 45660,
            "byteOffset" : 167856
        },
        {
            "buffer" : 0,
            "byteLength" : 45660,
            "byteOffset" : 213516
        },
        {
            "buffer" : 0,
            "byteLength" : 30440,
            "byteOffset" : 259176
        },
        {
            "buffer" : 0,
            "byteLength" : 28800,
            "byteOffset" : 289616
        },
        {
            "buffer" : 0,
            "byteLength" : 28152,
            "byteOffset" : 318416
        },
        {
            "buffer" : 0,
            "byteLength" : 28152,
            "byteOffset" : 346568
        },
        {
            "buffer" : 0,
            "byteLength" : 18768,
            "byteOffset" : 374720
        },
        {
            "buffer" : 0,
            "byteLength" : 37536,
            "byteOffset" : 393488
        },
        {
            "buffer" : 0,
            "byteLength" : 20148,
            "byteOffset" : 431024
        }
    ],
    "buffers" : [
        {
            "byteLength" : 451172,
            "uri" : "data:application/octet-stream;base64,"
        }
    ]
}
