<svg width="1802" height="693" viewBox="0 0 1802 693" fill="none" xmlns="http://www.w3.org/2000/svg">
<path d="M372.671 1C19.7251 53.2796 245.854 287.437 515.926 313.639C548.34 316.783 583.974 319.477 616.48 315.219C763.071 296.02 777.591 190.725 612.348 203.607C499.249 212.424 474.933 291.715 612.899 361.06C1097.58 604.674 1991.65 474.367 1764.79 292.516C1586.88 164.554 1445.41 159.469 1256.49 251.839C1067.57 344.209 923.557 434.037 923.557 584.879C923.557 735.722 1151.44 718.773 1151.44 584.879C1151.44 450.985 784.66 118.793 616.48 118.793C448.301 118.793 372.671 362.853 372.671 542.508C372.671 722.163 566.903 687.418 566.903 542.508C566.903 397.597 1.00001 400.987 1.00001 280.652" stroke="#3629AA" stroke-opacity="0.05" stroke-width="2" stroke-linecap="round" stroke-linejoin="round"/>
</svg>
