<svg width="100" height="25" viewBox="0 0 100 25" fill="none" xmlns="http://www.w3.org/2000/svg">
<g clip-path="url(#clip0)">
<path d="M26.2745 8.69922H36.398V10.588H32.4174V21.2058H30.2286V10.588H26.2656V8.69922H26.2745ZM35.9655 12.1502H37.8367V13.8978H37.872C37.9338 13.6507 38.0485 13.4124 38.2162 13.1829C38.3839 12.9534 38.5869 12.7328 38.8252 12.5474C39.0635 12.3532 39.3283 12.2032 39.6196 12.0796C39.9108 11.9649 40.2109 11.9031 40.511 11.9031C40.7405 11.9031 40.9082 11.9119 40.9964 11.9208C41.0847 11.9296 41.173 11.9472 41.27 11.9561V13.8802C41.1288 13.8537 40.9876 13.836 40.8376 13.8184C40.6875 13.8007 40.5463 13.7919 40.4051 13.7919C40.0697 13.7919 39.7519 13.8625 39.4519 13.9949C39.1518 14.1273 38.8958 14.3303 38.6752 14.5862C38.4545 14.851 38.278 15.1688 38.1456 15.5571C38.0132 15.9455 37.9514 16.3868 37.9514 16.8899V21.197H35.9567V12.1502H35.9655ZM50.4404 21.2058H48.481V19.9437H48.4457C48.1985 20.4027 47.8367 20.7645 47.3512 21.0381C46.8658 21.3117 46.3715 21.453 45.8685 21.453C44.6769 21.453 43.812 21.1617 43.2824 20.5704C42.7528 19.979 42.488 19.0876 42.488 17.896V12.1502H44.4827V17.7019C44.4827 18.4962 44.6328 19.0611 44.9417 19.3877C45.2418 19.7142 45.6743 19.8819 46.2215 19.8819C46.6452 19.8819 46.9894 19.8201 47.2718 19.6877C47.5542 19.5554 47.7837 19.3877 47.9514 19.167C48.1279 18.9552 48.2515 18.6904 48.3309 18.3903C48.4104 18.0902 48.4457 17.7636 48.4457 17.4106V12.1591H50.4404V21.2058ZM53.8384 18.302C53.9002 18.8846 54.1209 19.2906 54.5004 19.5289C54.8888 19.7584 55.3477 19.8819 55.8861 19.8819C56.0715 19.8819 56.2833 19.8643 56.5216 19.8378C56.7599 19.8113 56.9894 19.7495 57.1924 19.6701C57.4042 19.5907 57.5719 19.4671 57.7131 19.3082C57.8455 19.1494 57.9073 18.9464 57.8985 18.6904C57.8896 18.4344 57.7925 18.2226 57.616 18.0637C57.4395 17.896 57.2188 17.7725 56.9452 17.6666C56.6716 17.5695 56.3627 17.4812 56.0097 17.4106C55.6566 17.34 55.3036 17.2606 54.9417 17.1811C54.571 17.1017 54.2091 16.9958 53.8649 16.881C53.5207 16.7663 53.2118 16.6074 52.9382 16.4044C52.6646 16.2103 52.4439 15.9543 52.285 15.6454C52.1173 15.3365 52.0379 14.9569 52.0379 14.498C52.0379 14.0037 52.1615 13.5977 52.3998 13.2623C52.6381 12.9269 52.947 12.6621 53.3089 12.4591C53.6796 12.2561 54.0856 12.1149 54.5357 12.0267C54.9858 11.9472 55.4183 11.9031 55.8243 11.9031C56.2921 11.9031 56.7422 11.9561 57.1659 12.0531C57.5895 12.1502 57.9779 12.3091 58.3221 12.5386C58.6663 12.7592 58.9488 13.0505 59.1782 13.4035C59.4077 13.7566 59.549 14.1891 59.6107 14.6922H57.5278C57.4307 14.2155 57.2189 13.889 56.8746 13.7301C56.5304 13.5624 56.1332 13.483 55.6919 13.483C55.5507 13.483 55.383 13.4918 55.1888 13.5183C54.9947 13.5448 54.8181 13.5889 54.6416 13.6507C54.4739 13.7125 54.3327 13.8095 54.2091 13.9331C54.0944 14.0567 54.0326 14.2155 54.0326 14.4185C54.0326 14.6657 54.1209 14.8599 54.2886 15.0099C54.4563 15.1599 54.6769 15.2835 54.9505 15.3894C55.2241 15.4865 55.5331 15.5748 55.8861 15.6454C56.2391 15.716 56.601 15.7954 56.9717 15.8749C57.3336 15.9543 57.6866 16.0602 58.0397 16.1749C58.3927 16.2897 58.7016 16.4486 58.9753 16.6516C59.2489 16.8546 59.4695 17.1017 59.6372 17.4018C59.8049 17.7019 59.8932 18.0814 59.8932 18.5227C59.8932 19.0611 59.7696 19.5112 59.5225 19.8907C59.2753 20.2614 58.9576 20.5704 58.5692 20.7998C58.1809 21.0293 57.7396 21.2058 57.263 21.3118C56.7864 21.4177 56.3098 21.4706 55.842 21.4706C55.2683 21.4706 54.7387 21.4088 54.2533 21.2764C53.7678 21.1441 53.3442 20.9499 52.9911 20.6939C52.6381 20.4291 52.3557 20.1026 52.1527 19.7142C51.9497 19.3259 51.8437 18.8581 51.8261 18.3197H53.8384V18.302ZM60.4227 12.1502H61.932V9.43179H63.9267V12.1502H65.7272V13.6418H63.9267V18.4786C63.9267 18.6904 63.9355 18.8669 63.9532 19.0258C63.9708 19.1758 64.015 19.3082 64.0767 19.4141C64.1385 19.52 64.2356 19.5995 64.368 19.6524C64.5004 19.7054 64.6681 19.7319 64.8976 19.7319C65.0388 19.7319 65.18 19.7319 65.3212 19.723C65.4624 19.7142 65.6037 19.6966 65.7449 19.6613V21.2058C65.5242 21.2323 65.3036 21.25 65.1006 21.2764C64.8888 21.3029 64.6769 21.3118 64.4563 21.3118C63.9267 21.3118 63.5031 21.2588 63.1853 21.1617C62.8676 21.0646 62.6116 20.9146 62.4351 20.7204C62.2497 20.5262 62.135 20.2879 62.0644 19.9967C62.0026 19.7054 61.9585 19.37 61.9497 18.9993V13.6595H60.4404V12.1502H60.4227ZM67.1394 12.1502H69.0282V13.3771H69.0635C69.3459 12.8475 69.7343 12.4768 70.2374 12.2473C70.7405 12.0178 71.2789 11.9031 71.8702 11.9031C72.5851 11.9031 73.203 12.0267 73.7325 12.2826C74.2621 12.5298 74.7034 12.874 75.0565 13.3153C75.4095 13.7566 75.6654 14.2685 75.842 14.851C76.0185 15.4336 76.1068 16.0602 76.1068 16.7222C76.1068 17.3312 76.0273 17.9225 75.8685 18.4874C75.7096 19.0611 75.4713 19.5642 75.1535 20.0055C74.8358 20.4468 74.4298 20.791 73.9355 21.0558C73.4413 21.3206 72.8676 21.453 72.1968 21.453C71.9055 21.453 71.6143 21.4265 71.323 21.3735C71.0317 21.3206 70.7493 21.2323 70.4845 21.1176C70.2197 21.0028 69.9638 20.8528 69.7431 20.6674C69.5136 20.4821 69.3283 20.2703 69.1694 20.032H69.1341V24.5509H67.1394V12.1502ZM74.1121 16.6869C74.1121 16.2809 74.0591 15.8837 73.9532 15.4953C73.8473 15.107 73.6884 14.7716 73.4766 14.4715C73.2647 14.1714 73 13.9331 72.691 13.7566C72.3733 13.5801 72.0114 13.483 71.6054 13.483C70.7669 13.483 70.1315 13.7742 69.7078 14.3568C69.2842 14.9393 69.0723 15.716 69.0723 16.6869C69.0723 17.1458 69.1253 17.5695 69.24 17.9578C69.3548 18.3462 69.5136 18.6816 69.7431 18.964C69.9638 19.2464 70.2286 19.4671 70.5375 19.626C70.8464 19.7937 71.2083 19.8731 71.6143 19.8731C72.0732 19.8731 72.4527 19.776 72.7705 19.5907C73.0882 19.4053 73.3442 19.1582 73.5472 18.8669C73.7502 18.5668 73.9002 18.2314 73.9885 17.8519C74.0679 17.4724 74.1121 17.084 74.1121 16.6869ZM77.6337 8.69922H79.6284V10.588H77.6337V8.69922ZM77.6337 12.1502H79.6284V21.2058H77.6337V12.1502ZM81.4113 8.69922H83.406V21.2058H81.4113V8.69922ZM89.5225 21.453C88.7987 21.453 88.1544 21.3294 87.5896 21.0911C87.0247 20.8528 86.5481 20.5174 86.1509 20.1026C85.7625 19.6789 85.4625 19.1758 85.2595 18.5933C85.0565 18.0108 84.9505 17.3665 84.9505 16.6692C84.9505 15.9808 85.0565 15.3453 85.2595 14.7628C85.4625 14.1802 85.7625 13.6772 86.1509 13.2535C86.5392 12.8298 87.0247 12.5033 87.5896 12.265C88.1544 12.0267 88.7987 11.9031 89.5225 11.9031C90.2462 11.9031 90.8905 12.0267 91.4554 12.265C92.0203 12.5033 92.4969 12.8387 92.8941 13.2535C93.2824 13.6772 93.5825 14.1802 93.7855 14.7628C93.9885 15.3453 94.0944 15.9808 94.0944 16.6692C94.0944 17.3665 93.9885 18.0108 93.7855 18.5933C93.5825 19.1758 93.2824 19.6789 92.8941 20.1026C92.5057 20.5262 92.0203 20.8528 91.4554 21.0911C90.8905 21.3294 90.2462 21.453 89.5225 21.453ZM89.5225 19.8731C89.9638 19.8731 90.3521 19.776 90.6787 19.5907C91.0053 19.4053 91.2701 19.1582 91.4819 18.8581C91.6937 18.558 91.8438 18.2138 91.9497 17.8343C92.0468 17.4547 92.0997 17.0664 92.0997 16.6692C92.0997 16.2809 92.0468 15.9013 91.9497 15.513C91.8526 15.1246 91.6937 14.7892 91.4819 14.4892C91.2701 14.1891 91.0053 13.9508 90.6787 13.7654C90.3521 13.5801 89.9638 13.483 89.5225 13.483C89.0812 13.483 88.6928 13.5801 88.3662 13.7654C88.0397 13.9508 87.7749 14.1979 87.5631 14.4892C87.3512 14.7892 87.2012 15.1246 87.0953 15.513C86.9982 15.9013 86.9452 16.2809 86.9452 16.6692C86.9452 17.0664 86.9982 17.4547 87.0953 17.8343C87.1924 18.2138 87.3512 18.558 87.5631 18.8581C87.7749 19.1582 88.0397 19.4053 88.3662 19.5907C88.6928 19.7848 89.0812 19.8731 89.5225 19.8731ZM94.6769 12.1502H96.1862V9.43179H98.1809V12.1502H99.9814V13.6418H98.1809V18.4786C98.1809 18.6904 98.1897 18.8669 98.2074 19.0258C98.225 19.1758 98.2692 19.3082 98.3309 19.4141C98.3927 19.52 98.4898 19.5995 98.6222 19.6524C98.7546 19.7054 98.9223 19.7319 99.1518 19.7319C99.293 19.7319 99.4342 19.7319 99.5754 19.723C99.7166 19.7142 99.8579 19.6966 99.9991 19.6613V21.2058C99.7784 21.2323 99.5578 21.25 99.3548 21.2764C99.1429 21.3029 98.9311 21.3118 98.7105 21.3118C98.1809 21.3118 97.7572 21.2588 97.4395 21.1617C97.1218 21.0646 96.8658 20.9146 96.6893 20.7204C96.5039 20.5262 96.3892 20.2879 96.3186 19.9967C96.2568 19.7054 96.2127 19.37 96.2038 18.9993V13.6595H94.6946V12.1502H94.6769Z" fill="#211E4F"/>
<path d="M23.9453 8.70256H14.8014L11.9771 0L9.14387 8.70256L0 8.69373L7.40512 14.0777L4.57193 22.7714L11.9771 17.3963L19.3733 22.7714L16.549 14.0777L23.9453 8.70256Z" fill="#00B67A"/>
<path d="M17.184 16.0464L16.5485 14.0781L11.9766 17.3967L17.184 16.0464Z" fill="#005128"/>
</g>
<defs>
<clipPath id="clip0">
<rect width="100" height="24.6249" fill="white"/>
</clipPath>
</defs>
</svg>
